C:UsersJoelDocumentsCompartirHappy Twon 1x02 [HDTV + AC3 + Spanish].avi
   General
      Complete name : C:UsersJoelDocumentsCompartirHappy Twon 1x02 [HDTV + AC3 + Spanish].avi
      Format : AVI
      Format/Info : Audio Video Interleave
      File size : 445 MiB
      Duration : 40mn 34s
      Overall bit rate : 1 533 Kbps
      Writing application : VirtualDubMod 1.5.10.2 (build 2540/release)
      Writing library : VirtualDubMod build 2540/release
   Video #0
      ID : 0
      Format : MPEG-4 Visual
      Format profile : Simple@L3
      Format settings, BVOP : No
      Format settings, QPel : No
      Format settings, GMC : No warppoints
      Format settings, Matrix : Default (H.263)
      Codec ID : XVID
      Codec ID/Hint : XviD
      Duration : 40mn 34s
      Bit rate : 1 075 Kbps
      Width : 624 pixels
      Height : 352 pixels
      Display aspect ratio : 16:9
      Frame rate : 25.000 fps
      Resolution : 24 bits
      Colorimetry : 4:2:0
      Scan type : Progressive
      Bits/(Pixel*Frame) : 0.196
      Stream size : 312 MiB (70%)
      Writing library : XviD 1.2.0.dev49
   Audio #1
      ID : 1
      Format : AC-3
      Format/Info : Audio Coding 3
      Codec ID : 2000
      Duration : 40mn 34s
      Bit rate mode : Constant
      Bit rate : 448 Kbps
      Channel(s) : 2 channels
      Channel positions : L R
      Sampling rate : 48.0 KHz
      Stream size : 130 MiB (29%)
      Alignment : Split accross interleaves
      Interleave, duration : 40 ms (1.00 video frame)
      Interleave, preload duration : 500 ms
      Idioma : Spanish